<svg xmlns="http://www.w3.org/2000/svg" viewBox="0 0 225.75 179.82"><defs><style>.cls-1,.cls-4{fill:#fff}.cls-2{fill:#041427}.cls-3{fill:#d71612}.cls-4{fill-rule:evenodd}</style></defs><title>Ресурс 1</title><g id="Слой_2" data-name="Слой 2"><g id="Layer_1" data-name="Layer 1"><circle class="cls-1" cx="113.36" cy="69.46" r="65.03"/><circle class="cls-2" cx="113.36" cy="69.46" r="53.03"/><path class="cls-3" d="M112.87 0a69.44 69.44 0 1 0 69.44 69.44A69.44 69.44 0 0 0 112.87 0zm0 129.53A60.09 60.09 0 1 1 173 69.44a60.09 60.09 0 0 1-60.13 60.09zM18 156.64v1.65c0 .84-.3 1.14-1.14 1.14h-5.72v18.75c0 .84-.3 1.14-1.14 1.14H8.05c-.84 0-1.14-.3-1.14-1.14v-18.75H1.14c-.87 0-1.14-.3-1.14-1.14v-1.65c0-.84.27-1.14 1.14-1.14h15.77c.84 0 1.09.3 1.09 1.14zM35.38 155c6.14 0 9.56 3.36 9.56 8.76v7.31c0 5.4-3.42 8.75-9.56 8.75s-9.59-3.36-9.59-8.75v-7.31c0-5.41 3.42-8.76 9.59-8.76zm0 3.93c-3.45 0-5.37 1.68-5.37 4.8v7.38c0 3.12 1.91 4.8 5.37 4.8s5.37-1.67 5.37-4.8v-7.38c0-3.13-1.95-4.81-5.37-4.81zm37.46 3.95c0 3.49-1.64 5.83-4.43 6.78a4.41 4.41 0 0 1 1.08 1.44l3.69 7.08c.34.64.27 1.14-.57 1.14h-1.95c-1.44 0-1.88-.16-2.28-1l-2.82-5.7c-.87-1.85-1.68-2.35-4-2.35h-2.48v7.92c0 .84-.3 1.14-1.14 1.14H56c-.87 0-1.18-.3-1.18-1.14v-21.55c0-.84.3-1.14 1.18-1.14h9.26c4.74 0 7.58 2.76 7.58 7.38zm-7.95-3.45h-5.81v6.91h5.81c2.25 0 3.52-1.21 3.52-3.45s-1.24-3.46-3.52-3.46zM91.58 155c6.14 0 9.56 3.36 9.56 8.76v7.31c0 5.4-3.42 8.75-9.56 8.75S82 176.47 82 171.07v-7.31c0-5.41 3.41-8.76 9.58-8.76zm0 3.93c-3.45 0-5.37 1.68-5.37 4.8v7.38c0 3.12 1.91 4.8 5.37 4.8s5.37-1.67 5.37-4.8v-7.38c0-3.13-1.95-4.81-5.37-4.81zm37.03 20.39h-1.94c-1.44 0-1.88-.16-2.28-1L121 171.5c-.91-1.81-1.68-2.35-4-2.35h-1.71v9c0 .84-.3 1.14-1.14 1.14h-1.91c-.87 0-1.17-.3-1.17-1.14v-21.51c0-.84.3-1.14 1.17-1.14h1.91c.84 0 1.14.3 1.14 1.14v8.69h1.78l6.74-8.89c.61-.8.94-.94 2.28-.94h2.15c.77 0 1 .54.54 1.11l-7.48 9.56a7.66 7.66 0 0 1 3.62 3.83l4.26 8.18c.33.64.26 1.14-.57 1.14zm27.83-22.68v21.53c0 .84-.3 1.14-1.17 1.14h-1.91c-.84 0-1.14-.3-1.14-1.14v-9h-9.93v9c0 .84-.3 1.14-1.14 1.14h-1.91c-.87 0-1.17-.3-1.17-1.14v-21.53c0-.84.3-1.14 1.17-1.14h1.91c.84 0 1.14.3 1.14 1.14v8.65h9.93v-8.65c0-.84.3-1.14 1.14-1.14h1.91c.87 0 1.17.3 1.17 1.14zm26.8 0v1.65c0 .84-.3 1.14-1.14 1.14h-5.77v18.75c0 .84-.3 1.14-1.14 1.14h-1.94c-.84 0-1.14-.3-1.14-1.14v-18.75h-5.77c-.87 0-1.14-.3-1.14-1.14v-1.65c0-.84.27-1.14 1.14-1.14h15.77c.82 0 1.13.3 1.13 1.14zm9.92-1.14h1.91c.84 0 1.14.3 1.14 1.14v21.53c0 .84-.3 1.14-1.14 1.14h-1.91c-.87 0-1.18-.3-1.18-1.14v-21.53c.02-.84.3-1.14 1.18-1.14zm32.38 1.14l-8.18 13.28v8.25c0 .84-.3 1.14-1.14 1.14h-1.92c-.87 0-1.14-.3-1.14-1.14v-8.32l-8.22-13.22c-.37-.64-.24-1.14.6-1.14h2.35c1.34 0 1.71 0 2.21 1l5.2 9.06 5.23-9.06c.54-1 .9-1 2.25-1H225c.81.01.91.51.54 1.15z"/><path class="cls-4" d="M123.29 64V36.94h-9.95v65h9.95V74h47.92V64zm-22.61 37.91h9.95v-65h-9.95z"/></g></g></svg>