<?xml version="1.0" encoding="UTF-8" standalone="no"?>
<svg width="107px" height="30px" viewBox="0 0 107 30" version="1.1" xmlns="http://www.w3.org/2000/svg" xmlns:xlink="http://www.w3.org/1999/xlink">
    <!-- Generator: Sketch 41 (35326) - http://www.bohemiancoding.com/sketch -->
    <title>Canape_logo</title>
    <desc>Created with Sketch.</desc>
    <defs>
        <polygon id="path-1" points="0.121032787 22.4890523 35.2614699 22.4890523 35.2614699 0.285369165 0.121032787 0.285369165"></polygon>
    </defs>
    <g id="Page-1" stroke="none" stroke-width="1" fill="none" fill-rule="evenodd">
        <g id="Homepage-fin-Copy" transform="translate(-94.000000, -61.000000)">
            <g id="Canape_logo" transform="translate(94.000000, 61.000000)">
                <path d="M8.2930847,23.8521301 C3.27928689,23.8521301 0,20.5529279 0,15.5426648 C0,10.3451372 3.31086066,6.92186139 8.35623224,6.92186139 C12.7075656,6.92186139 15.6088443,9.2555983 15.9871448,12.9905007 L11.6039454,12.9905007 C11.2887923,11.2165375 10.1220246,10.2207751 8.38751366,10.2207751 C5.95954918,10.2207751 4.50920219,12.1502631 4.50920219,15.4491768 C4.50920219,18.6546025 5.89669399,20.4908911 8.2930847,20.4908911 C10.2167459,20.4908911 11.4147951,19.3707666 11.7615219,17.2543027 L16.0815738,17.2543027 C15.514123,21.4246167 12.6131366,23.8521301 8.2930847,23.8521301" id="Fill-1" fill="#FFFFFF"></path>
                <path d="M25.5075137,16.4761018 C23.9624454,16.7251146 22.2282268,16.911802 22.2282268,18.8727412 C22.2282268,20.2110042 23.1426967,21.0197907 24.6874727,21.0197907 C27.0210082,21.0197907 28.6607978,19.7441414 28.6607978,17.4409901 L28.6607978,15.6358642 C27.6203251,16.2273777 26.6427077,16.2894144 25.5075137,16.4761018 L25.5075137,16.4761018 Z M29.0075246,23.4473041 C28.7868005,22.8563678 28.7552268,22.6070665 28.6923716,21.8914795 C27.3048798,23.2609052 25.3812186,23.9144554 23.426276,23.9144554 C19.8315437,23.9144554 17.6243033,22.0781669 17.6243033,19.0594286 C17.6243033,14.8576634 21.5029071,14.3596379 24.7190464,13.955389 C27.6203251,13.5817256 28.6923716,13.3327129 28.6923716,12.0256124 C28.6923716,10.5629873 27.7463279,9.8782744 25.7598115,9.8782744 C23.7101475,9.8782744 22.8585328,10.5009505 22.5433798,12.3369505 L18.349623,12.3369505 C18.6019208,8.75786139 21.1874617,6.92186139 25.8858142,6.92186139 C29.1651011,6.92186139 32.9808497,7.66861103 32.9808497,12.1502631 L32.9808497,19.0903027 C32.9808497,20.5529279 32.949276,22.0781669 33.5483005,23.4473041 L29.0075246,23.4473041 L29.0075246,23.4473041 Z" id="Fill-2" fill="#FFFFFF"></path>
                <path d="M47.0101284,23.4473041 L47.0101284,14.0797511 C47.0101284,12.0879378 46.6318279,10.5938614 44.2354372,10.5938614 C41.5551749,10.5938614 40.7035601,12.4924752 40.7035601,14.8267893 L40.7035601,23.4473041 L36.2575055,23.4473041 L36.2575055,7.38872419 L40.5144098,7.38872419 L40.5144098,9.62926167 C41.8071803,7.91762376 43.6045464,6.9527355 45.9065082,6.9527355 C49.3436639,6.9527355 51.5509044,8.97571146 51.5509044,12.7106139 L51.5509044,23.4473041 L47.0101284,23.4473041" id="Fill-3" fill="#FFFFFF"></path>
                <g id="Group-7" transform="translate(53.792350, 6.636492)">
                    <mask id="mask-2" fill="white">
                        <use xlink:href="#path-1"></use>
                    </mask>
                    <g id="Clip-5"></g>
                    <path d="M8.00424317,9.83960962 C6.45917486,10.0886223 4.72466393,10.2753098 4.72466393,12.2362489 C4.72466393,13.574512 5.63913388,14.3832984 7.18420219,14.3832984 C9.5177377,14.3832984 11.1575273,13.1076492 11.1575273,10.8044979 L11.1575273,8.99937199 C10.1167623,9.59088543 9.13943716,9.65292221 8.00424317,9.83960962 L8.00424317,9.83960962 Z M11.5045464,16.8108119 C11.2838224,16.2198755 11.2519563,15.9705743 11.1888087,15.2549873 C9.80131694,16.624413 7.87794809,17.2779632 5.92300546,17.2779632 C2.32827322,17.2779632 0.121032787,15.4416747 0.121032787,12.4229364 C0.121032787,8.22117115 3.99963661,7.72314569 7.21606831,7.31889675 C10.1167623,6.94523338 11.1888087,6.69622065 11.1888087,5.38912023 C11.1888087,3.92649505 10.2430574,3.24178218 8.25654098,3.24178218 C6.2065847,3.24178218 5.3552623,3.86445827 5.04010929,5.70045827 L0.846352459,5.70045827 C1.09865027,2.12136917 3.68419126,0.285369165 8.38254372,0.285369165 C11.662123,0.285369165 15.4772869,1.03211881 15.4772869,5.51377086 L15.4772869,12.4538105 C15.4772869,13.9164356 15.4460055,15.4416747 16.0450301,16.8108119 L11.5045464,16.8108119 L11.5045464,16.8108119 Z" id="Fill-4" fill="#FFFFFF" mask="url(#mask-2)"></path>
                    <path d="M23.0269262,8.81268458 C23.0269262,11.9246223 24.4775656,13.7609109 26.9371038,13.7609109 C29.3334945,13.7609109 30.7841339,11.9246223 30.7841339,8.87472136 C30.7841339,5.73162093 29.3019208,3.86445827 26.9055301,3.86445827 C24.4775656,3.86445827 23.0269262,5.70045827 23.0269262,8.81268458 L23.0269262,8.81268458 Z M22.964071,2.74404526 C24.1621202,1.09415559 25.9279126,0.316243281 28.0091503,0.316243281 C32.3923497,0.316243281 35.2614699,3.70864498 35.2614699,8.87472136 C35.2614699,13.9164356 32.4554973,17.2156379 28.1983005,17.2156379 C26.1486366,17.2156379 24.3828443,16.4685997 23.1847951,14.8192871 L23.1847951,22.5063649 L18.7387404,22.5063649 L18.7387404,0.752231966 L22.964071,0.752231966 L22.964071,2.74404526 L22.964071,2.74404526 Z" id="Fill-6" fill="#FFFFFF" mask="url(#mask-2)"></path>
                </g>
                <path d="M98.9592131,10.1272871 C96.9726967,10.1272871 95.5852049,11.4967129 95.3329071,13.7375389 L102.459224,13.7375389 C102.270074,11.7768883 101.197735,10.1272871 98.9592131,10.1272871 L98.9592131,10.1272871 Z M99.1167896,23.9144554 C94.1032842,23.9144554 90.7924235,20.5529279 90.7924235,15.5112136 C90.7924235,10.5318246 94.2289945,6.92186139 98.9592131,6.92186139 C103.87829,6.92186139 107,10.4694993 107,16.102727 L107,16.5384272 L95.3329071,16.5384272 C95.3960546,19.3081528 96.7516803,20.8022291 99.1483634,20.8022291 C100.788153,20.8022291 101.797052,20.0863536 102.459224,18.4682037 L106.747702,18.4682037 C105.738803,21.9535163 102.805951,23.9144554 99.1167896,23.9144554 L99.1167896,23.9144554 Z" id="Fill-8" fill="#FFFFFF"></path>
                <polyline id="Fill-9" fill="#FFFFFF" points="98.7031148 0.247858557 103.717205 0.247858557 98.9241311 4.69834795 95.7389809 4.69834795 98.7031148 0.247858557"></polyline>
            </g>
        </g>
    </g>
</svg>